<svg width="91" height="90" viewBox="0 0 91 90" fill="none" xmlns="http://www.w3.org/2000/svg">
<path d="M45.2864 2.53957C39.1461 2.53957 32.2631 -1.53424 26.9165 0.637461C21.3544 2.89603 19.2846 10.6932 15.0853 14.806C10.859 18.9397 3.02042 20.8658 0.690119 26.3654C-1.5653 31.6913 2.43934 38.6048 2.43934 44.7365C2.43934 50.8682 -1.5683 57.7817 0.690119 63.1076C3.02042 68.6073 10.859 70.5304 15.0853 74.6671C19.3116 78.8038 21.3544 86.58 26.9165 88.8356C32.2631 91.0043 39.1461 86.9335 45.2864 86.9335C51.4267 86.9335 58.3097 91.0073 63.6563 88.8356C69.0028 86.6639 71.2882 78.7799 75.4875 74.6671C79.7138 70.5334 87.5524 68.6073 89.8827 63.1076C92.1381 57.7817 88.1335 50.8682 88.1335 44.7365C88.1335 38.6048 92.1411 31.6913 89.8827 26.3654C87.5524 20.8658 79.7138 18.9427 75.4875 14.806C71.2852 10.6932 69.2184 2.89304 63.6563 0.637461C58.3097 -1.53125 51.4267 2.53957 45.2864 2.53957ZM54.9041 86.4782C49.5816 87.7393 44.0553 82.5362 38.9874 81.7484C33.7068 80.9276 26.8536 84.1118 22.3817 81.3919C17.8888 78.66 17.5803 71.1115 14.4593 66.804C11.4431 62.6404 4.31737 60.0343 3.09231 54.7084C1.86426 49.3735 7.1359 43.8918 8.02848 38.7935C8.94802 33.5365 5.90784 26.605 8.73836 22.1448C11.5569 17.7056 19.1289 17.4929 23.496 14.3866C27.863 11.2803 30.3311 4.25597 35.6657 2.99488C40.9882 1.7338 46.5145 6.9369 51.5824 7.7247C56.863 8.54546 63.7162 5.36129 68.1881 8.08116C72.681 10.813 72.9895 18.3616 76.1105 22.669C79.1267 26.8327 86.2524 29.4387 87.4775 34.7647C88.7056 40.0996 83.4339 45.5812 82.5413 50.6795C81.6218 55.9365 84.662 62.868 81.8314 67.3282C79.0129 71.7675 71.4409 71.9802 67.0738 75.0865C62.7068 78.1927 60.2387 85.2171 54.9041 86.4782Z" fill="url(#paint0_linear_11871_32427)"/>
<defs>
<linearGradient id="paint0_linear_11871_32427" x1="0.00121117" y1="44.7365" x2="90.5686" y2="44.7365" gradientUnits="userSpaceOnUse">
<stop stop-color="#0066FF"/>
<stop offset="0.98" stop-color="#64C0FF"/>
</linearGradient>
</defs>
</svg>
