<svg width="28" height="28" viewBox="0 0 28 28" fill="none" xmlns="http://www.w3.org/2000/svg">
<path d="M22.8319 10.2734H12.5568C11.2957 10.2734 10.2734 11.2957 10.2734 12.5568V22.8319C10.2734 24.0929 11.2957 25.1152 12.5568 25.1152H22.8319C24.0929 25.1152 25.1152 24.0929 25.1152 22.8319V12.5568C25.1152 11.2957 24.0929 10.2734 22.8319 10.2734Z" stroke="#A0A4AB" stroke-width="1.60501" stroke-linecap="round" stroke-linejoin="round"/>
<path d="M5.70627 17.123H4.5646C3.95902 17.123 3.37824 16.8824 2.95003 16.4542C2.52182 16.026 2.28125 15.4452 2.28125 14.8397V4.5646C2.28125 3.95902 2.52182 3.37824 2.95003 2.95003C3.37824 2.52182 3.95902 2.28125 4.5646 2.28125H14.8397C15.4452 2.28125 16.026 2.52182 16.4542 2.95003C16.8824 3.37824 17.123 3.95902 17.123 4.5646V5.70627" stroke="#A0A4AB" stroke-width="1.60501" stroke-linecap="round" stroke-linejoin="round"/>
</svg>
