<svg width="28" height="28" viewBox="0 0 28 28" fill="none" xmlns="http://www.w3.org/2000/svg">
<path d="M19.4034 14.8401L14.8367 25.1151C13.9284 25.1151 13.0572 24.7543 12.4149 24.112C11.7726 23.4697 11.4117 22.5985 11.4117 21.6901V17.1234H4.94983C4.61885 17.1272 4.29101 17.0589 3.98903 16.9234C3.68705 16.7878 3.41814 16.5883 3.20095 16.3385C2.98375 16.0887 2.82346 15.7947 2.73117 15.4768C2.63888 15.159 2.61681 14.8248 2.66648 14.4976L4.24199 4.22251C4.32456 3.67804 4.60112 3.18175 5.02072 2.82509C5.44032 2.46843 5.97468 2.27544 6.52534 2.28166H19.4034M19.4034 14.8401V2.28166M19.4034 14.8401H22.4517C23.0978 14.8515 23.7257 14.6253 24.216 14.2044C24.7064 13.7835 25.0252 13.1971 25.1118 12.5567V4.56501C25.0252 3.9246 24.7064 3.33828 24.216 2.91737C23.7257 2.49645 23.0978 2.27024 22.4517 2.28166H19.4034" stroke="#A0A4AB" stroke-width="1.60501" stroke-linecap="round" stroke-linejoin="round"/>
</svg>
