<svg width="28" height="28" viewBox="0 0 28 28" fill="none" xmlns="http://www.w3.org/2000/svg">
<path d="M7.98962 12.5563L12.5563 2.28125C13.4647 2.28125 14.3359 2.6421 14.9782 3.28442C15.6205 3.92673 15.9813 4.7979 15.9813 5.70627V10.273H22.4432C22.7742 10.2692 23.102 10.3375 23.404 10.473C23.706 10.6085 23.9749 10.8081 24.1921 11.0579C24.4093 11.3077 24.5696 11.6017 24.6619 11.9195C24.7542 12.2374 24.7762 12.5716 24.7266 12.8988L23.1511 23.1739C23.0685 23.7184 22.7919 24.2146 22.3723 24.5713C21.9527 24.928 21.4184 25.121 20.8677 25.1147H7.98962M7.98962 12.5563V25.1147M7.98962 12.5563H4.5646C3.95902 12.5563 3.37824 12.7969 2.95003 13.2251C2.52182 13.6533 2.28125 14.2341 2.28125 14.8397V22.8314C2.28125 23.437 2.52182 24.0177 2.95003 24.446C3.37824 24.8742 3.95902 25.1147 4.5646 25.1147H7.98962" stroke="#A0A4AB" stroke-width="1.60501" stroke-linecap="round" stroke-linejoin="round"/>
</svg>
