<svg width="121" height="30" viewBox="0 0 121 30" fill="none" xmlns="http://www.w3.org/2000/svg">
<path d="M27 0H3C1.34315 0 0 1.34315 0 3V27C0 28.6569 1.34315 30 3 30H27C28.6569 30 30 28.6569 30 27V3C30 1.34315 28.6569 0 27 0Z" fill="#0066FF"/>
<path d="M5.82812 23.9062H9.9924L23.7776 5.90625H19.6133L5.82812 23.9062Z" fill="white"/>
<path d="M19.2921 23.9062C21.7704 23.9062 23.7794 21.8915 23.7794 19.4062C23.7794 16.921 21.7704 14.9062 19.2921 14.9062C16.8138 14.9062 14.8047 16.921 14.8047 19.4062C14.8047 21.8915 16.8138 23.9062 19.2921 23.9062Z" fill="white"/>
<path d="M10.3155 14.9062C12.7938 14.9062 14.8029 12.8915 14.8029 10.4062C14.8029 7.92097 12.7938 5.90625 10.3155 5.90625C7.83719 5.90625 5.82812 7.92097 5.82812 10.4062C5.82812 12.8915 7.83719 14.9062 10.3155 14.9062Z" fill="white"/>
<path d="M72.7077 5.90625H69.6562V23.8943H72.7077V5.90625Z" fill="white"/>
<path d="M60.4967 5.90625H57.4453V23.8943H60.4967V5.90625Z" fill="white"/>
<path d="M69.6542 23.8943H66.6028L60.5 5.90625H63.5514L69.6542 23.8943Z" fill="white"/>
<path d="M89.9453 13.1003V16.7003C89.9453 20.6723 93.3617 23.8943 97.5798 23.8943C101.792 23.8943 105.214 20.6723 105.214 16.7003V13.1003C105.214 9.12825 101.798 5.90625 97.5798 5.90625C93.3677 5.90625 89.9453 9.12825 89.9453 13.1003ZM97.5798 21.0142C95.0489 21.0142 93.0027 19.0823 93.0027 16.7003V13.1003C93.0027 10.7183 95.0549 8.78625 97.5798 8.78625C100.111 8.78625 102.157 10.7183 102.157 13.1003V16.7003C102.157 19.0823 100.105 21.0142 97.5798 21.0142Z" fill="white"/>
<path d="M105.148 23.8943H108.69L120.411 5.90625H116.869L105.148 23.8943Z" fill="white"/>
<path d="M105.148 5.90625H108.69L120.411 23.8943H116.869L105.148 5.90625Z" fill="white"/>
<path d="M77.9609 23.9021V5.91406H74.9694V23.9021H77.9609Z" fill="white"/>
<path d="M74.9768 23.9062H89.0312V20.9062H74.9768V23.9062Z" fill="white"/>
<path d="M47.8162 23.8943C46.7691 23.8943 45.8298 23.7922 45.0041 23.5883C44.1784 23.3843 43.4604 23.0723 42.8442 22.6523C42.2339 22.2323 41.7193 21.7283 41.3125 21.1403C40.9056 20.5523 40.5945 19.8863 40.3911 19.1363C40.1877 18.3863 40.0859 17.5702 40.0859 16.6762V5.90625H43.4724V16.5683C43.4724 17.5283 43.634 18.3322 43.9511 18.9742C44.2682 19.6163 44.7528 20.0902 45.393 20.4022C46.0332 20.7142 46.8349 20.8703 47.7922 20.8703C48.7496 20.8703 49.5752 20.7202 50.2035 20.4142C50.8317 20.1142 51.3103 19.6403 51.6275 18.9983C51.9446 18.3562 52.1061 17.5463 52.1061 16.5683V5.90625H55.4627V16.6762C55.4627 18.9742 54.8165 20.7502 53.5301 22.0103C52.2437 23.2642 50.3351 23.8943 47.8162 23.8943Z" fill="white"/>
</svg>
